#!OML:ASF I:\golf\golf\golf 2\Subject 1\2002-09-07\Subject1.ASF
:FULLY-SPECIFIED
:DEGREES
447
root -5.78127 18.1345 -2.33082 -164.109 19.2844 -175.021
lowerback -3.1799 8.88594 4.80795
upperback -3.82636 12.3331 3.29793
thorax -1.96789 6.30255 0.968757
lowerneck -19.8893 -5.80299 0.312967
upperneck 9.61069 -7.87735 0.00956083
head 6.10332 -3.81291 -0.893769
rclavicle 1.59028e-015 2.8625e-014
rhumerus 19.4024 17.6848 -104.134
rradius 16.1668
rwrist -4.96612
rhand -28.3464 12.8929
rfingers 7.12502
rthumb -1.72049 -17.0799
lclavicle 1.59028e-015 2.8625e-014
lhumerus 11.5552 -4.45472 105.402
lradius 24.7106
lwrist 22.709
lhand -20.7318 24.9081
lfingers 7.12502
lthumb -174.367 -125.187
rfemur 1.38985 -7.55554 18.5699
rtibia 27.6526
rfoot 8.91369 -25.8755
rtoes 13.5327
lfemur -27.6549 -11.894 -10.8543
ltibia 19.724
lfoot 25.3079 -38.551
ltoes 31.8395
448
root -5.7762 18.1373 -2.32334 -164.031 19.4042 -175.022
lowerback -3.23185 8.80271 4.74646
upperback -3.9036 12.2187 3.22412
thorax -2.0166 6.24328 0.924076
lowerneck -19.7146 -5.65044 0.554282
upperneck 9.48943 -7.72497 -0.0609408
head 6.02513 -3.7394 -0.928917
rclavicle 4.30866e-014 -3.49861e-014
rhumerus 18.7261 17.9954 -104.251
rradius 16.4648
rwrist -5.44912
rhand -28.216 12.7243
rfingers 7.12502
rthumb -1.59454 -17.2495
lclavicle 4.30866e-014 -3.49861e-014
lhumerus 10.9321 -5.2534 104.829
lradius 25.0135
lwrist 23.3236
lhand -20.2059 25.5256
lfingers 7.12502
lthumb -173.859 -124.583
rfemur 1.28902 -7.62022 18.5292
rtibia 27.6342
rfoot 9.12415 -25.6463
rtoes 13.2663
lfemur -27.7234 -11.9421 -10.8239
ltibia 19.7419
lfoot 24.5194 -38.7932
ltoes 31.196
449
root -5.7707 18.1417 -2.31796 -163.927 19.5435 -174.983
lowerback -3.25805 8.78757 4.67348
upperback -4.00795 12.2104 3.20176
thorax -2.12089 6.24091 0.931393
lowerneck -19.6159 -5.58526 0.5539
upperneck 9.53831 -7.63499 -0.0726634
head 6.02539 -3.69597 -0.921196
rclavicle -6.7885e-014 -4.77083e-015
rhumerus 18.1002 18.3368 -104.114
rradius 16.7378
rwrist -6.08052
rhand -28.1309 12.5666
rfingers 7.12502
rthumb -1.51238 -17.4078
lclavicle -6.7885e-014 -4.77083e-015
lhumerus 10.2132 -6.38535 104.43
lradius 25.4255
lwrist 24.5145
lhand -20.7479 25.8651
lfingers 7.12502
lthumb -174.382 -124.229
rfemur 1.1909 -7.6516 18.5266
rtibia 27.5927
rfoot 9.51346 -25.2932
rtoes 12.0771
lfemur -27.808 -12.0701 -10.7283
ltibia 19.7866
lfoot 23.5572 -38.9838
ltoes 30.466
450
root -5.76527 18.1461 -2.31247 -163.837 19.6547 -174.91
lowerback -3.23784 8.80488 4.63232
upperback -4.08899 12.2506 3.21843
thorax -2.22856 6.26363 0.956915
lowerneck -19.6358 -5.6062 0.422058
upperneck 9.67247 -7.6283 -0.0768309
head 6.07661 -3.69502 -0.905034
rclavicle 1.40143e-014 -5.88403e-014
rhumerus 17.6348 19.2376 -103.516
rradius 17.0861
rwrist -7.39683
rhand -28.1516 12.4449
rfingers 7.12502
rthumb -1.53237 -17.5294
lclavicle 1.40143e-014 -5.88403e-014
lhumerus 9.49917 -7.69471 104.154
lradius 25.7818
lwrist 25.7181
lhand -22.3437 26.1826
lfingers 7.12502
lthumb -175.923 -123.877
rfemur 1.12903 -7.66874 18.5706
rtibia 27.5269
rfoot 9.87061 -24.9676
rtoes 10.8389
lfemur -27.8769 -12.1555 -10.6076
ltibia 19.8494
lfoot 23.2005 -38.7994
ltoes 30.8244
451
root -5.76091 18.1484 -2.30795 -163.861 19.7805 -174.896
lowerback -3.22768 8.78591 4.52396
upperback -4.06224 12.2269 3.26769
thorax -2.23873 6.25535 1.06006
lowerneck -19.7837 -5.59129 0.367181
upperneck 9.79625 -7.58822 -0.126936
head 6.14022 -3.67908 -0.915355
rclavicle 8.96519e-014 3.65764e-014
rhumerus 17.249 19.7038 -103.196
rradius 17.2808
rwrist -8.01512
rhand -28.0842 12.4215
rfingers 7.12502
rthumb -1.46727 -17.5532
lclavicle 8.96519e-014 3.65764e-014
lhumerus 8.89594 -8.88095 103.878
lradius 26.2823
lwrist 26.8075
lhand -23.3905 26.8211
lfingers 7.12502
lthumb -176.934 -123.221
rfemur 1.18854 -7.66153 18.5317
rtibia 27.4159
rfoot 10.304 -24.6982
rtoes 9.87463
lfemur -27.8361 -12.2147 -10.5993
ltibia 19.9369
lfoot 22.5726 -38.8565
ltoes 30.801
452
root -5.75749 18.1516 -2.30321 -163.93 19.9624 -174.866
lowerback -3.26466 8.74894 4.39411
upperback -3.95311 12.1686 3.36562
thorax -2.15184 6.23186 1.2385
lowerneck -19.9749 -5.50955 0.35323
upperneck 9.8627 -7.46702 -0.195287
head 6.19051 -3.62512 -0.929107
rclavicle 6.60959e-015 -7.95139e-015
rhumerus 16.8389 19.7923 -103.122
rradius 17.4944
rwrist -8.14184
rhand -27.8378 12.3553
rfingers 7.12502
rthumb -1.2293 -17.6209
lclavicle 6.60959e-015 -7.95139e-015
lhumerus 8.40479 -9.86895 103.62
lradius 26.8922
lwrist 27.7546
lhand -23.6915 27.3884
lfingers 7.12502
lthumb -177.225 -122.65
rfemur 1.30165 -7.55688 18.4946
rtibia 27.3027
rfoot 10.6952 -24.5008
rtoes 9.03449
lfemur -27.7168 -12.2566 -10.6084
ltibia 20.0103
lfoot 21.3366 -39.2674
ltoes 30.097
453
root -5.75388 18.1552 -2.29903 -163.94 20.1249 -174.7
lowerback -3.3038 8.71535 4.40899
upperback -3.88718 12.1252 3.49187
thorax -2.08693 6.2158 1.36837
lowerneck -19.9847 -5.40636 0.349704
upperneck 9.86365 -7.31521 -0.283352
head 6.1899 -3.55926 -0.940523
rclavicle -4.90501e-014 -3.18055e-015
rhumerus 16.3694 20.3687 -102.804
rradius 17.9227
rwrist -8.95513
rhand -27.5989 12.1759
rfingers 7.12502
rthumb -0.998561 -17.8015
lclavicle -4.90501e-014 -3.18055e-015
lhumerus 7.83938 -11.0668 103.305
lradius 27.4726
lwrist 28.6716
lhand -23.974 27.8941
lfingers 7.12502
lthumb -177.498 -122.141
rfemur 1.38057 -7.4559 18.5987
rtibia 27.2373
rfoot 10.8808 -24.369
rtoes 8.27143
lfemur -27.5886 -12.2763 -10.4743
ltibia 20.0174
lfoot 20.4458 -39.4066
ltoes 29.8318
454
root -5.75081 18.1588 -2.29665 -163.881 20.323 -174.587
lowerback -3.39968 8.69122 4.37917
upperback -3.87532 12.0962 3.5823
thorax -2.04803 6.20794 1.48986
lowerneck -19.901 -5.28118 0.361256
upperneck 9.85046 -7.13522 -0.384875
head 6.16914 -3.48069 -0.952541
rclavicle -1.22103e-013 -4.13472e-014
rhumerus 15.8811 21.628 -102.18
rradius 18.483
rwrist -10.6945
rhand -27.4782 12.2871
rfingers 7.12502
rthumb -0.881988 -17.6908
lclavicle -1.22103e-013 -4.13472e-014
lhumerus 7.20486 -12.2865 102.98
lradius 28.127
lwrist 29.4806
lhand -24.1225 28.5229
lfingers 7.12502
lthumb -177.641 -121.51
rfemur 1.35254 -7.42247 18.6078
rtibia 27.1856
rfoot 10.9092 -24.2658
rtoes 8.45886
lfemur -27.5356 -12.3742 -10.3545
ltibia 20.0017
lfoot 19.8202 -39.2085
ltoes 29.6209
455
root -5.74798 18.1654 -2.29141 -163.847 20.631 -174.671
lowerback -3.4301 8.6783 4.14111
upperback -3.9179 12.0849 3.58995
thorax -2.12395 6.20771 1.61735
lowerneck -19.8534 -5.15177 0.365677
upperneck 9.88242 -6.95525 -0.436989
head 6.1711 -3.39738 -0.949878
rclavicle 2.70844e-014 1.74931e-014
rhumerus 15.3211 23.1468 -101.516
rradius 19.1806
rwrist -12.7524
rhand -27.5297 12.2951
rfingers 7.12502
rthumb -0.931684 -17.6826
lclavicle 2.70844e-014 1.74931e-014
lhumerus 6.4956 -13.3455 102.649
lradius 28.9471
lwrist 30.2563
lhand -23.8638 29.4797
lfingers 7.12502
lthumb -177.391 -120.556
rfemur 1.26072 -7.30973 18.3996
rtibia 27.1093
rfoot 10.9787 -24.1814
rtoes 9.37593
lfemur -27.5255 -12.5389 -10.4117
ltibia 20.0133
lfoot 18.8663 -38.9869
ltoes 28.5516
456
root -5.7458 18.1724 -2.28717 -164.002 20.931 -174.709
lowerback -3.25015 8.66854 4.0385
upperback -3.93362 12.0805 3.58076
thorax -2.25718 6.20268 1.62647
lowerneck -19.8098 -5.04774 0.430596
upperneck 9.97558 -6.82484 -0.489754
head 6.19107 -3.33475 -0.963479
rclavicle -1.02623e-013 -1.59028e-015
rhumerus 14.714 24.0643 -101.139
rradius 19.9101
rwrist -13.7693
rhand -27.2526 11.7126
rfingers 7.12502
rthumb -0.664103 -18.2661
lclavicle -1.02623e-013 -1.59028e-015
lhumerus 5.75118 -14.5458 102.257
lradius 29.8182
lwrist 31.2209
lhand -23.29 30.5996
lfingers 7.12502
lthumb -176.837 -119.444
rfemur 1.39773 -7.10361 18.2346
rtibia 27.0237
rfoot 10.9824 -24.1351
rtoes 10.0354
lfemur -27.2883 -12.6826 -10.5051
ltibia 20.0229
lfoot 17.3926 -39.0642
ltoes 26.5501
457
root -5.7455 18.1788 -2.28816 -164.235 21.1709 -174.681
lowerback -3.09461 8.64407 4.07597
upperback -3.88627 12.0451 3.58471
thorax -2.28634 6.17916 1.58877
lowerneck -19.7437 -4.93286 0.591395
upperneck 10.0516 -6.69944 -0.579097
head 6.19744 -3.27433 -1.0032
rclavicle -4.97956e-014 -1.11319e-014
rhumerus 14.1192 24.5574 -100.924
rradius 20.596
rwrist -13.8575
rhand -26.5428 11.2514
rfingers 7.12502
rthumb 0.0215211 -18.7283
lclavicle -4.97956e-014 -1.11319e-014
lhumerus 5.05488 -15.884 101.823
lradius 30.7836
lwrist 32.4609
lhand -22.8494 31.5781
lfingers 7.12502
lthumb -176.411 -118.472
rfemur 1.67462 -6.96617 18.11
rtibia 26.9349
rfoot 10.5359 -24.326
rtoes 11.7187
lfemur -26.9385 -12.8588 -10.5671
ltibia 20.0226
lfoot 15.8526 -39.2658
ltoes 25.1559
458
root -5.7427 18.1858 -2.28742 -164.268 21.4117 -174.707
lowerback -3.19396 8.61658 3.95775
upperback -3.85026 11.9928 3.56848
thorax -2.21278 6.15424 1.65246
lowerneck -19.8198 -4.80745 0.761227
upperneck 10.1465 -6.56968 -0.629506
head 6.23408 -3.20775 -1.03584
rclavicle -3.5334e-014 -3.81667e-014
rhumerus 13.4593 24.5492 -100.97
rradius 21.2094
rwrist -13.5407
rhand -25.7929 11.3894
rfingers 7.12502
rthumb 0.745726 -18.589
lclavicle -3.5334e-014 -3.81667e-014
lhumerus 4.40484 -17.4578 101.269
lradius 31.9089
lwrist 33.9905
lhand -22.8384 32.5405
lfingers 7.12502
lthumb -176.401 -117.51
rfemur 1.7189 -6.90769 17.9689
rtibia 26.8262
rfoot 10.4147 -24.4325
rtoes 13.0573
lfemur -26.8353 -12.972 -10.608
ltibia 20.0442
lfoot 14.9131 -39.2269
ltoes 25.0374
459
root -5.73622 18.1931 -2.28421 -164.128 21.7772 -174.725
lowerback -3.31741 8.60622 3.63047
upperback -3.93325 11.9871 3.5797
thorax -2.29781 6.16164 1.84087
lowerneck -19.9685 -4.69792 0.835491
upperneck 10.4055 -6.45018 -0.590855
head 6.34201 -3.13926 -1.0314
rclavicle -7.20594e-015 0
rhumerus 13.2054 29.8336 -98.5573
rradius 23.1554
rwrist -19.2323
rhand -25.8105 10.6686
rfingers 7.12502
rthumb 0.728726 -19.3099
lclavicle -7.20594e-015 0
lhumerus 3.59715 -19.2214 100.674
lradius 33.0968
lwrist 35.7001
lhand -23.0922 33.6122
lfingers 7.12502
lthumb -176.646 -116.434
rfemur 1.55212 -6.72491 17.8626
rtibia 26.7377
rfoot 10.7179 -24.3431
rtoes 13.5079
lfemur -26.8642 -12.8187 -10.6597
ltibia 20.0444
lfoot 14.5639 -38.9744
ltoes 26.0439
460
root -5.72957 18.2007 -2.28496 -163.849 22.2718 -174.631
lowerback -3.85392 8.67507 3.47206
upperback -3.82806 12.0365 3.57534
thorax -1.92354 6.19502 2.02279
lowerneck -20.2239 -4.61694 0.868943
upperneck 10.5258 -6.37299 -0.470425
head 6.42603 -3.08796 -0.99882
rclavicle -7.75757e-014 -8.26944e-014
rhumerus 12.9929 32.0017 -97.4355
rradius 24.5975
rwrist -21.5522
rhand -25.4164 9.96679
rfingers 7.12502
rthumb 1.10943 -20.0101
lclavicle -7.75757e-014 -8.26944e-014
lhumerus 3.18077 -20.9089 100.044
lradius 34.2103
lwrist 37.3291
lhand -22.9857 34.6897
lfingers 7.12502
lthumb -176.543 -115.359
rfemur 1.23871 -6.49129 17.827
rtibia 26.6842
rfoot 11.478 -23.9328
rtoes 12.1474
lfemur -26.9353 -12.5513 -10.6132
ltibia 19.9995
lfoot 14.1164 -38.7521
ltoes 26.4942
461
root -5.72532 18.2057 -2.27637 -163.916 22.4117 -174.578
lowerback -3.62606 8.62545 3.45087
upperback -3.97477 11.998 3.54894
thorax -2.19974 6.17385 1.9507
lowerneck -20.0918 -4.55246 0.931044
upperneck 10.7427 -6.31593 -0.38281
head 6.47711 -3.04672 -0.975003
rclavicle -4.39811e-014 3.02153e-014
rhumerus 12.0084 32.6677 -97.3102
rradius 25.7949
rwrist -22.1215
rhand -24.8667 9.35434
rfingers 7.12502
rthumb 1.64031 -20.6191
lclavicle -4.39811e-014 3.02153e-014
lhumerus 2.26244 -22.3859 99.6387
lradius 35.3202
lwrist 38.704
lhand -22.3791 35.5261
lfingers 7.12502
lthumb -175.957 -114.532
rfemur 1.2907 -6.50679 17.8328
rtibia 26.6424
rfoot 12.5364 -23.335
rtoes 9.01427
lfemur -26.7802 -12.7845 -10.5135
ltibia 19.9585
lfoot 13.1943 -38.7211
ltoes 25.3067
